<svg width="26" height="26" viewBox="0 0 26 26" fill="none" xmlns="http://www.w3.org/2000/svg">
<mask id="path-1-outside-1_304_1377" maskUnits="userSpaceOnUse" x="0" y="0" width="26" height="26" fill="black">
<rect fill="white" width="26" height="26"/>
<path fill-rule="evenodd" clip-rule="evenodd" d="M12.9972 1.00117H12.9952C12.9927 1.00136 12.9902 1.00155 12.9876 1.00175C12.9804 1.00194 12.9734 1.00253 12.9662 1.00331C12.837 1.01887 12.7358 1.12162 12.722 1.25104C11.4847 7.60334 7.95593 11.6142 1.25469 12.7232C1.13365 12.7337 1.03343 12.8214 1.00676 12.9399C1.00657 12.9409 1.00637 12.9417 1.00618 12.9427C1.00443 12.9506 1.00307 12.9586 1.00209 12.9668C1.0019 12.9689 1.0017 12.9711 1.00151 12.9732C1.00073 12.9794 1.00034 12.9859 1.00015 12.9923C0.999951 12.9966 0.999951 13.0009 1.00015 13.0051C1.00015 13.0098 1.00015 13.0143 1.00054 13.0189C1.00092 13.0254 1.00151 13.0318 1.00248 13.0382C1.00268 13.0404 1.00307 13.0425 1.00326 13.0446C1.00462 13.0532 1.00637 13.0618 1.00851 13.0701C1.0379 13.1861 1.13773 13.2706 1.25703 13.2799C7.95567 14.3892 11.4838 18.3982 12.7213 24.748C12.7338 24.8813 12.8391 24.987 12.9722 24.9999H12.9751C12.9804 25 12.9858 25 12.9913 24.9999C12.9955 25 13 25 13.0045 24.9999H13.0103C13.1491 24.9948 13.2629 24.8885 13.2777 24.7506C14.5178 18.3983 18.0436 14.3879 24.7445 13.2785C24.866 13.2681 24.9666 13.1804 24.9932 13.0617C24.9934 13.0607 24.9936 13.0597 24.9938 13.0587C24.9956 13.051 24.9969 13.0428 24.9979 13.0348C24.9981 13.0327 24.9983 13.0305 24.9985 13.0284C24.9993 13.022 24.9997 13.0155 24.9999 13.0091C25 13.0048 25 13.0006 24.9999 12.9963C24.9999 12.9918 24.9999 12.9871 24.9995 12.9827C24.9991 12.9762 24.9985 12.9698 24.9975 12.9634C24.9973 12.9613 24.9969 12.9591 24.9967 12.957C24.9954 12.9484 24.9936 12.9398 24.9915 12.9313C24.9623 12.8155 24.8627 12.7312 24.7436 12.7215C18.0449 11.6123 14.5192 7.60319 13.2782 1.25337C13.2658 1.12026 13.1605 1.01459 13.0274 1.00175C13.0266 1.00156 13.0258 1.00156 13.0251 1.00136H13.0243C13.019 1.00097 13.0136 1.00078 13.0083 1.00058C13.0046 1.00039 13.0007 1.00019 12.997 1L12.9972 1.00117ZM13.0001 2.56052C14.3808 7.97276 17.6801 11.6478 23.3086 13.0014C17.6801 14.3553 14.3811 18.03 13.0001 23.4423C11.6211 18.03 8.31985 14.355 2.69107 13.0014C8.3196 11.6477 11.6211 7.97276 13.0001 2.56052Z"/>
</mask>
<path fill-rule="evenodd" clip-rule="evenodd" d="M12.9972 1.00117H12.9952C12.9927 1.00136 12.9902 1.00155 12.9876 1.00175C12.9804 1.00194 12.9734 1.00253 12.9662 1.00331C12.837 1.01887 12.7358 1.12162 12.722 1.25104C11.4847 7.60334 7.95593 11.6142 1.25469 12.7232C1.13365 12.7337 1.03343 12.8214 1.00676 12.9399C1.00657 12.9409 1.00637 12.9417 1.00618 12.9427C1.00443 12.9506 1.00307 12.9586 1.00209 12.9668C1.0019 12.9689 1.0017 12.9711 1.00151 12.9732C1.00073 12.9794 1.00034 12.9859 1.00015 12.9923C0.999951 12.9966 0.999951 13.0009 1.00015 13.0051C1.00015 13.0098 1.00015 13.0143 1.00054 13.0189C1.00092 13.0254 1.00151 13.0318 1.00248 13.0382C1.00268 13.0404 1.00307 13.0425 1.00326 13.0446C1.00462 13.0532 1.00637 13.0618 1.00851 13.0701C1.0379 13.1861 1.13773 13.2706 1.25703 13.2799C7.95567 14.3892 11.4838 18.3982 12.7213 24.748C12.7338 24.8813 12.8391 24.987 12.9722 24.9999H12.9751C12.9804 25 12.9858 25 12.9913 24.9999C12.9955 25 13 25 13.0045 24.9999H13.0103C13.1491 24.9948 13.2629 24.8885 13.2777 24.7506C14.5178 18.3983 18.0436 14.3879 24.7445 13.2785C24.866 13.2681 24.9666 13.1804 24.9932 13.0617C24.9934 13.0607 24.9936 13.0597 24.9938 13.0587C24.9956 13.051 24.9969 13.0428 24.9979 13.0348C24.9981 13.0327 24.9983 13.0305 24.9985 13.0284C24.9993 13.022 24.9997 13.0155 24.9999 13.0091C25 13.0048 25 13.0006 24.9999 12.9963C24.9999 12.9918 24.9999 12.9871 24.9995 12.9827C24.9991 12.9762 24.9985 12.9698 24.9975 12.9634C24.9973 12.9613 24.9969 12.9591 24.9967 12.957C24.9954 12.9484 24.9936 12.9398 24.9915 12.9313C24.9623 12.8155 24.8627 12.7312 24.7436 12.7215C18.0449 11.6123 14.5192 7.60319 13.2782 1.25337C13.2658 1.12026 13.1605 1.01459 13.0274 1.00175C13.0266 1.00156 13.0258 1.00156 13.0251 1.00136H13.0243C13.019 1.00097 13.0136 1.00078 13.0083 1.00058C13.0046 1.00039 13.0007 1.00019 12.997 1L12.9972 1.00117ZM13.0001 2.56052C14.3808 7.97276 17.6801 11.6478 23.3086 13.0014C17.6801 14.3553 14.3811 18.03 13.0001 23.4423C11.6211 18.03 8.31985 14.355 2.69107 13.0014C8.3196 11.6477 11.6211 7.97276 13.0001 2.56052Z" fill="black"/>
<path d="M12.9972 1.00117V1.30117H13.3331L13.2953 0.967337L12.9972 1.00117ZM12.9952 1.00117V0.701165H12.9837L12.9722 0.702049L12.9952 1.00117ZM12.9876 1.00175L12.9957 1.30164L13.0032 1.30144L13.0106 1.30087L12.9876 1.00175ZM12.9662 1.00331L12.934 0.705022L12.9303 0.70546L12.9662 1.00331ZM12.722 1.25104L13.0165 1.30839L13.0189 1.29572L13.0203 1.28288L12.722 1.25104ZM1.25469 12.7232L1.28064 13.022L1.29221 13.021L1.30367 13.0191L1.25469 12.7232ZM1.00676 12.9399L0.713995 12.8741L0.712591 12.8811L1.00676 12.9399ZM1.00618 12.9427L1.29925 13.007L1.30035 13.0015L1.00618 12.9427ZM1.00209 12.9668L0.70408 12.9313L0.703325 12.9396L1.00209 12.9668ZM1.00151 12.9732L1.29936 13.0105L1.30028 13.0004L1.00151 12.9732ZM1.00015 12.9923L1.29987 13.0059L1.30001 13.0014L1.00015 12.9923ZM1.00015 13.0051H1.30046L1.29984 12.9915L1.00015 13.0051ZM1.00054 13.0189L1.30006 13.0008L1.2995 12.994L1.00054 13.0189ZM1.00248 13.0382L1.30125 13.011L1.30044 13.0021L1.2991 12.9933L1.00248 13.0382ZM1.00326 13.0446L0.704491 13.0718L0.705403 13.0818L0.706986 13.0918L1.00326 13.0446ZM1.00851 13.0701L1.29933 12.9964L1.29915 12.9958L1.00851 13.0701ZM1.25703 13.2799L1.30604 12.9839L1.29331 12.9818L1.28044 12.9808L1.25703 13.2799ZM12.7213 24.748L13.02 24.7201L13.0187 24.7053L13.0158 24.6907L12.7213 24.748ZM12.9722 24.9999L12.9434 25.2985L12.9578 25.2999H12.9722V24.9999ZM12.9751 24.9999L12.9862 24.6999H12.9751V24.9999ZM12.9913 24.9999L13.0049 24.7002L12.9927 24.6996L12.9806 24.7L12.9913 24.9999ZM13.0045 24.9999V24.6996L12.9915 24.7001L13.0045 24.9999ZM13.0103 24.9999V25.3001L13.0213 25.2997L13.0103 24.9999ZM13.2777 24.7506L12.9833 24.6931L12.9808 24.7058L12.9794 24.7186L13.2777 24.7506ZM24.7445 13.2785L24.7191 12.9795L24.7073 12.9805L24.6955 12.9825L24.7445 13.2785ZM24.9932 13.0617L25.286 13.1274L25.2874 13.1205L24.9932 13.0617ZM24.9938 13.0587L24.7011 12.9929L24.6996 12.9999L24.9938 13.0587ZM24.9979 13.0348L25.2958 13.0711L25.2967 13.062L24.9979 13.0348ZM24.9985 13.0284L24.7005 12.9923L24.6997 13.0012L24.9985 13.0284ZM24.9999 13.0091L24.7001 12.9955L24.7 13L24.9999 13.0091ZM24.9999 12.9963H24.6995L24.7002 13.0099L24.9999 12.9963ZM24.9995 12.9827L24.6999 13.0008L24.7006 13.0086L24.9995 12.9827ZM24.9975 12.9634L24.6988 12.9906L24.6996 12.9995L24.7009 13.0083L24.9975 12.9634ZM24.9967 12.957L25.2955 12.9298L25.2946 12.9198L25.293 12.9098L24.9967 12.957ZM24.9915 12.9313L25.2825 12.8585L25.2824 12.8579L24.9915 12.9313ZM24.7436 12.7215L24.6945 13.0175L24.7068 13.0195L24.7191 13.0205L24.7436 12.7215ZM13.2782 1.25337L12.9795 1.28132L12.9809 1.29622L12.9838 1.31092L13.2782 1.25337ZM13.0274 1.00175L12.9546 1.2928L12.9763 1.29822L12.9986 1.30036L13.0274 1.00175ZM13.0251 1.00136L13.0978 0.710317L13.062 0.701362H13.0251V1.00136ZM13.0243 1.00136L13.0021 1.30054L13.0132 1.30136H13.0243V1.00136ZM13.0083 1.00058L12.9926 1.30021L12.9972 1.30038L13.0083 1.00058ZM12.997 1L13.0128 0.700415L12.659 0.681795L12.6989 1.03383L12.997 1ZM13.0001 2.56052L13.2908 2.48636L12.7094 2.48645L13.0001 2.56052ZM23.3086 13.0014L23.3788 13.2931L23.3788 12.7097L23.3086 13.0014ZM13.0001 23.4423L12.7094 23.5164L13.2908 23.5165L13.0001 23.4423ZM2.69107 13.0014L2.62092 12.7097L2.62093 13.2931L2.69107 13.0014ZM12.9972 0.701165H12.9952V1.30117H12.9972V0.701165ZM12.9722 0.702049C12.9697 0.702243 12.9671 0.702439 12.9646 0.702633L13.0106 1.30087C13.0132 1.30067 13.0157 1.30048 13.0182 1.30028L12.9722 0.702049ZM12.9795 0.701859C12.9614 0.702348 12.9458 0.703769 12.934 0.705044L12.9985 1.30157C13.0011 1.30129 12.9994 1.30154 12.9957 1.30164L12.9795 0.701859ZM12.9303 0.70546C12.6621 0.737775 12.4523 0.951062 12.4237 1.21919L13.0203 1.28288C13.0193 1.29219 13.0119 1.29997 13.0021 1.30115L12.9303 0.70546ZM12.4275 1.19368C11.8167 4.32958 10.6455 6.86179 8.82183 8.74464C7 10.6256 4.50521 11.8812 1.20571 12.4272L1.30367 13.0191C4.7054 12.4562 7.32562 11.1518 9.25281 9.16207C11.1782 7.17417 12.39 4.52481 13.0165 1.30839L12.4275 1.19368ZM1.22874 12.4243C0.977203 12.4461 0.769349 12.6284 0.714078 12.8741L1.29945 13.0058C1.2975 13.0144 1.29009 13.0212 1.28064 13.022L1.22874 12.4243ZM0.712591 12.8811C0.713206 12.878 0.713775 12.8755 0.713614 12.8762C0.713578 12.8764 0.712814 12.8798 0.712004 12.8838L1.30035 13.0015C1.29974 13.0046 1.29917 13.0071 1.29933 13.0064C1.29936 13.0062 1.30012 13.0028 1.30093 12.9988L0.712591 12.8811ZM0.713155 12.8783C0.70938 12.8955 0.70636 12.9132 0.704195 12.9313L1.29999 13.0023C1.29977 13.0041 1.29947 13.0057 1.2992 13.007L0.713155 12.8783ZM0.703325 12.9396C0.70313 12.9418 0.702935 12.9439 0.70274 12.9461L1.30028 13.0004C1.30047 12.9982 1.30067 12.9961 1.30086 12.994L0.703325 12.9396ZM0.703825 12.936C0.701486 12.9547 0.700647 12.9712 0.700284 12.9832L1.30001 13.0014C1.30003 13.0005 1.29997 13.0042 1.29919 13.0104L0.703825 12.936ZM0.700455 12.9787C0.699848 12.992 0.699848 13.0054 0.700455 13.0188L1.29984 12.9915C1.30005 12.9963 1.30005 13.0011 1.29984 13.0059L0.700455 12.9787ZM0.700146 13.0051C0.700146 13.008 0.699981 13.0248 0.701572 13.0439L1.2995 12.994C1.29996 12.9996 1.30009 13.0037 1.30013 13.0057C1.30016 13.0071 1.30015 13.008 1.30015 13.0051H0.700146ZM0.701084 13.0371C0.701827 13.0493 0.703146 13.0652 0.705866 13.0832L1.2991 12.9933C1.29987 12.9984 1.30002 13.0014 1.29999 13.0008L0.701084 13.0371ZM0.703714 13.0654C0.704161 13.0703 0.704642 13.0744 0.704973 13.077C0.705282 13.0795 0.705585 13.0817 0.70562 13.0819C0.70573 13.0828 0.705574 13.0816 0.705398 13.0802C0.7052 13.0786 0.704842 13.0756 0.704491 13.0718L1.30203 13.0175C1.30158 13.0126 1.3011 13.0085 1.30077 13.0058C1.30046 13.0034 1.30016 13.0012 1.30012 13.0009C1.30001 13.0001 1.30017 13.0012 1.30034 13.0026C1.30054 13.0042 1.3009 13.0072 1.30125 13.011L0.703714 13.0654ZM0.706986 13.0918C0.709727 13.109 0.713318 13.1267 0.717874 13.1445L1.29915 12.9958C1.29943 12.9969 1.29952 12.9974 1.29953 12.9975L0.706986 13.0918ZM0.717703 13.1438C0.77856 13.384 0.985596 13.5596 1.23361 13.579L1.28044 12.9808C1.28987 12.9816 1.29724 12.9882 1.29933 12.9965L0.717703 13.1438ZM1.20802 13.5759C4.50624 14.122 7.00025 15.3772 8.82163 17.2575C10.6448 19.1396 11.816 21.6708 12.4269 24.8054L13.0158 24.6907C12.3892 21.4755 11.1775 18.8272 9.25259 16.84C7.32586 14.851 4.70646 13.547 1.30604 12.9839L1.20802 13.5759ZM12.4226 24.7759C12.4485 25.0523 12.6668 25.2718 12.9434 25.2985L13.001 24.7012C13.0113 24.7022 13.0191 24.7103 13.02 24.7201L12.4226 24.7759ZM12.964 25.2997C12.9768 25.3001 12.9895 25.3001 13.002 25.2997L12.9806 24.7C12.9821 24.7 12.9839 24.7 12.9862 24.7001L12.964 25.2997ZM12.9776 25.2995C12.9912 25.3002 13.0046 25.3001 13.0175 25.2996L12.9915 24.7001C12.9955 24.7 12.9999 24.6999 13.0049 24.7002L12.9776 25.2995ZM13.0045 25.2999H13.0103V24.6999H13.0045V25.2999ZM13.0213 25.2997C13.3092 25.2892 13.5453 25.0686 13.576 24.7825L12.9794 24.7186C12.9805 24.7084 12.9889 24.7004 12.9994 24.7001L13.0213 25.2997ZM13.5722 24.808C14.1843 21.6721 15.3556 19.1399 17.1788 17.2571C19.0002 15.3762 21.4942 14.1207 24.7935 13.5744L24.6955 12.9825C21.2939 13.5457 18.6745 14.85 16.7478 16.8397C14.8228 18.8276 13.6111 21.4768 12.9833 24.6931L13.5722 24.808ZM24.7699 13.5774C25.0217 13.556 25.2306 13.374 25.2859 13.1274L24.7005 12.9959C24.7026 12.9868 24.7103 12.9803 24.7191 12.9795L24.7699 13.5774ZM25.2874 13.1205C25.2876 13.1195 25.2878 13.1185 25.288 13.1176L24.6996 12.9999C24.6995 13.0009 24.6993 13.0019 24.6991 13.0028L25.2874 13.1205ZM25.2865 13.1246C25.2907 13.1058 25.2937 13.0877 25.2957 13.0711L24.7001 12.9985C24.7002 12.9979 24.7004 12.9961 24.7011 12.9929L25.2865 13.1246ZM25.2967 13.062C25.2969 13.0598 25.2971 13.0577 25.2973 13.0555L24.6997 13.0012C24.6995 13.0034 24.6993 13.0055 24.6991 13.0076L25.2967 13.062ZM25.2963 13.0645C25.2985 13.0464 25.2993 13.0305 25.2997 13.0182L24.7 13C24.7 13.0006 24.7 12.9975 24.7007 12.9923L25.2963 13.0645ZM25.2995 13.0227C25.3002 13.0094 25.3002 12.996 25.2995 12.9827L24.7002 13.0099C24.6999 13.0051 24.6999 13.0003 24.7002 12.9955L25.2995 13.0227ZM25.2999 12.9963C25.2999 12.9942 25.3 12.9764 25.2983 12.9567L24.7006 13.0086C24.7 13.0022 24.6999 12.9975 24.6999 12.9958C24.6998 12.9944 24.6999 12.9935 24.6999 12.9963H25.2999ZM25.2989 12.9645C25.2982 12.9523 25.2969 12.9364 25.2941 12.9185L24.7009 13.0083C24.7001 13.0032 24.7 13.0002 24.7 13.0008L25.2989 12.9645ZM25.2963 12.9362C25.2958 12.9313 25.2954 12.9272 25.295 12.9246C25.2947 12.9221 25.2944 12.9199 25.2944 12.9196C25.2943 12.9188 25.2944 12.92 25.2946 12.9214C25.2948 12.923 25.2952 12.926 25.2955 12.9298L24.698 12.9841C24.6984 12.9891 24.6989 12.9931 24.6992 12.9958C24.6995 12.9983 24.6998 13.0005 24.6999 13.0007C24.7 13.0015 24.6998 13.0004 24.6997 12.999C24.6995 12.9974 24.6991 12.9944 24.6988 12.9906L25.2963 12.9362ZM25.293 12.9098C25.2903 12.8925 25.2867 12.8754 25.2825 12.8585L24.7004 13.004L24.7005 13.0041L25.293 12.9098ZM25.2824 12.8579C25.2217 12.6174 25.0148 12.4427 24.768 12.4225L24.7191 13.0205C24.7105 13.0198 24.7028 13.0136 24.7006 13.0046L25.2824 12.8579ZM24.7926 12.4255C21.4944 11.8794 19.001 10.6242 17.1798 8.74393C15.3567 6.86177 14.1853 4.33057 13.5727 1.19583L12.9838 1.31092C13.6122 4.52599 14.8241 7.17423 16.7488 9.16137C18.6753 11.1504 21.2941 12.4544 24.6945 13.0175L24.7926 12.4255ZM13.5769 1.22542C13.5511 0.949139 13.3326 0.72981 13.0562 0.703138L12.9986 1.30036C12.9884 1.29938 12.9805 1.29139 12.9795 1.28132L13.5769 1.22542ZM13.1001 0.710706C13.0887 0.707841 13.0792 0.706178 13.0731 0.705232C13.0701 0.704755 13.0676 0.704413 13.066 0.704206C13.0652 0.7041 13.0646 0.704017 13.0642 0.703964C13.0638 0.703916 13.0634 0.703874 13.0634 0.703874C13.0625 0.703756 13.0669 0.704278 13.072 0.705074C13.0776 0.705959 13.0867 0.707549 13.0978 0.710317L12.9523 1.29241C12.9638 1.29527 12.9733 1.29694 12.9793 1.29788C12.9824 1.29836 12.9849 1.2987 12.9864 1.29891C12.9872 1.29901 12.9879 1.2991 12.9883 1.29915C12.9887 1.2992 12.989 1.29924 12.989 1.29924C12.99 1.29936 12.9856 1.29884 12.9805 1.29804C12.9748 1.29715 12.9657 1.29556 12.9546 1.2928L13.1001 0.710706ZM13.0251 0.701362H13.0243V1.30136H13.0251V0.701362ZM13.0464 0.702182C13.0346 0.701304 13.0233 0.700931 13.0194 0.700789L12.9972 1.30038C13.0003 1.30049 13.0015 1.30054 13.0027 1.30059C13.0037 1.30064 13.0033 1.30063 13.0021 1.30054L13.0464 0.702182ZM13.0241 0.700998C13.022 0.700889 13.0199 0.700781 13.018 0.700686C13.0161 0.700586 13.0144 0.700499 13.0128 0.700415L12.9813 1.29959C12.9834 1.2997 12.9855 1.2998 12.9873 1.2999C12.9892 1.3 12.9909 1.30008 12.9926 1.30017L13.0241 0.700998ZM12.6989 1.03383L12.6991 1.03499L13.2953 0.967337L13.2951 0.966171L12.6989 1.03383ZM12.7094 2.63468C13.4099 5.38067 14.6015 7.70211 16.3455 9.51118C18.0905 11.3214 20.3751 12.6045 23.2385 13.2931L23.3788 12.7097C20.6136 12.0447 18.4344 10.8136 16.7774 9.09476C15.1194 7.37483 13.971 5.15261 13.2908 2.48636L12.7094 2.63468ZM23.2384 12.7097C20.3751 13.3985 18.0905 14.6816 16.3455 16.4917C14.6016 18.3008 13.4101 20.6221 12.7094 23.3681L13.2908 23.5165C13.9711 20.8502 15.1195 18.628 16.7775 16.9082C18.4344 15.1894 20.6136 13.9582 23.3788 13.2931L23.2384 12.7097ZM13.2908 23.3682C12.5911 20.6221 11.3995 18.3007 9.65522 16.4916C7.90988 14.6814 5.62469 13.3983 2.76121 12.7097L2.62093 13.2931C5.38624 13.9581 7.56606 15.1893 9.22329 16.9081C10.8816 18.628 12.0301 20.8502 12.7094 23.5164L13.2908 23.3682ZM2.76122 13.2931C5.62456 12.6045 7.90976 11.3213 9.65512 9.51116C11.3994 7.70211 12.5911 5.38066 13.2908 2.63459L12.7094 2.48645C12.0301 5.15262 10.8815 7.37479 9.2232 9.0947C7.56593 10.8135 5.38611 12.0447 2.62092 12.7097L2.76122 13.2931ZM12.9722 25.2999H12.9751V24.6999H12.9722V25.2999Z" fill="black" mask="url(#path-1-outside-1_304_1377)"/>
</svg>
